<svg xmlns="http://www.w3.org/2000/svg" width="18.752" height="15.221" viewBox="0 0 18.752 15.221">
  <g id="Group_5" data-name="Group 5" transform="translate(0)">
    <path id="Path_303" data-name="Path 303" d="M968.056,1144.66v.493a11.13,11.13,0,0,1-.706,3.853,11.489,11.489,0,0,1-2.1,3.511,10.4,10.4,0,0,1-3.425,2.569,11.17,11.17,0,0,1-4.688.985,10.961,10.961,0,0,1-3.125-.449,10.629,10.629,0,0,1-2.783-1.263q.449.043.92.043a7.645,7.645,0,0,0,2.547-.428,7.987,7.987,0,0,0,2.226-1.2,3.844,3.844,0,0,1-2.226-.781,3.707,3.707,0,0,1-1.349-1.894,3.829,3.829,0,0,0,.707.064,3.971,3.971,0,0,0,1.006-.128,3.72,3.72,0,0,1-1.563-.717,3.816,3.816,0,0,1-1.1-1.349,4.007,4.007,0,0,1-.418-1.7v-.064a3.606,3.606,0,0,0,1.755.492,3.869,3.869,0,0,1-1.252-1.381,3.761,3.761,0,0,1-.46-1.83,3.823,3.823,0,0,1,.514-1.927,10.979,10.979,0,0,0,7.921,4.024,4.452,4.452,0,0,1-.086-.878,3.746,3.746,0,0,1,.514-1.927,3.879,3.879,0,0,1,1.4-1.4,3.7,3.7,0,0,1,1.916-.524,3.811,3.811,0,0,1,2.8,1.221,7.477,7.477,0,0,0,2.44-.942,3.721,3.721,0,0,1-.653,1.231,3.96,3.96,0,0,1-1.038.91,7.818,7.818,0,0,0,2.226-.621A8.047,8.047,0,0,1,968.056,1144.66Z" transform="translate(-951.23 -1140.849)" fill="#fff"/>
  </g>
</svg>
