<?xml version="1.0" encoding="utf-8"?>
<svg width="16" height="16" viewBox="0 0 16 16" xmlns="http://www.w3.org/2000/svg">
  <path d="M 7.149 7.584 L 8.841 7.584 L 8.841 8.379 L 7.315 8.379 C 7.383 8.536 7.417 8.694 7.417 8.851 C 7.417 9.163 7.343 9.492 7.194 9.84 C 7.046 10.187 6.801 10.541 6.461 10.903 C 6.744 10.824 7.002 10.785 7.235 10.785 C 7.532 10.785 7.867 10.83 8.239 10.919 C 8.855 11.066 9.272 11.139 9.49 11.139 C 9.755 11.139 10.099 11.039 10.522 10.839 L 10.833 11.725 C 10.504 11.865 10.249 11.956 10.068 11.999 C 9.887 12.042 9.707 12.063 9.528 12.063 C 9.378 12.063 9.226 12.049 9.072 12.02 C 8.975 12.002 8.743 11.937 8.376 11.824 C 8.009 11.711 7.772 11.644 7.664 11.623 C 7.496 11.594 7.328 11.58 7.159 11.58 C 6.902 11.58 6.627 11.625 6.335 11.714 C 6.043 11.804 5.777 11.925 5.537 12.079 L 5.167 11.15 C 5.51 10.96 5.802 10.689 6.042 10.336 C 6.282 9.984 6.402 9.553 6.402 9.045 C 6.402 8.826 6.372 8.604 6.311 8.379 L 5.258 8.379 L 5.258 7.584 L 6.085 7.584 C 5.967 7.183 5.892 6.89 5.86 6.706 C 5.827 6.521 5.811 6.341 5.811 6.166 C 5.811 5.421 6.087 4.839 6.638 4.42 C 7.082 4.087 7.62 3.921 8.25 3.921 C 8.898 3.921 9.432 4.099 9.853 4.455 C 10.274 4.811 10.532 5.312 10.629 5.956 L 9.668 6.101 C 9.614 5.672 9.454 5.333 9.187 5.086 C 8.92 4.839 8.601 4.716 8.228 4.716 C 7.831 4.716 7.5 4.844 7.237 5.1 C 6.974 5.356 6.843 5.664 6.843 6.026 C 6.843 6.424 6.945 6.943 7.149 7.584 Z" style="white-space: pre; fill: rgb(55, 60, 73);"/>
  <circle cx="8" cy="8" r="7.5" fill="none" stroke="#373c49" stroke-linecap="round" stroke-linejoin="round" stroke-width="1"/>
</svg>