<?xml version="1.0" encoding="utf-8"?>
<svg width="5" height="15" viewBox="0 0 15 15" xmlns="http://www.w3.org/2000/svg">
  <path d="M 14.797 7.5 C 14.797 11.53 11.53 14.797 7.5 14.797 C 3.47 14.797 0.203 11.53 0.203 7.5 C 0.203 3.47 3.47 0.203 7.5 0.203 C 11.53 0.203 14.797 3.47 14.797 7.5 Z M 6.332 10.829 C 6.331 10.829 6.33 10.829 6.329 10.829 C 6.329 10.829 6.328 10.829 6.327 10.829 Z M 6.33 10.829 C 6.392 10.829 6.452 10.823 6.514 10.811 C 6.532 10.8 6.548 10.786 6.563 10.773 L 11.943 5.397 C 11.957 5.382 11.97 5.366 11.982 5.349 C 12.005 5.227 12.005 5.1 11.982 4.977 C 11.97 4.959 11.957 4.942 11.943 4.927 L 11.241 4.226 C 11.226 4.212 11.209 4.198 11.192 4.186 C 11.131 4.176 11.069 4.171 11.007 4.172 C 10.944 4.171 10.882 4.177 10.821 4.19 C 10.803 4.201 10.786 4.213 10.771 4.229 L 6.329 8.668 L 4.228 6.566 C 4.211 6.552 4.195 6.538 4.177 6.526 C 4.116 6.516 4.054 6.509 3.992 6.509 C 3.93 6.508 3.868 6.515 3.806 6.526 C 3.788 6.536 3.771 6.55 3.757 6.564 L 3.056 7.263 C 3.041 7.278 3.028 7.295 3.017 7.312 C 2.994 7.435 2.994 7.562 3.017 7.686 C 3.029 7.703 3.041 7.718 3.056 7.732 L 6.098 10.773 C 6.112 10.786 6.127 10.8 6.145 10.811 C 6.206 10.823 6.267 10.829 6.33 10.829 Z" style="fill: rgb(0, 137, 32);"/>
</svg>