<?xml version="1.0" encoding="utf-8"?>
<svg width="5" height="15" viewBox="0 0 15 15" xmlns="http://www.w3.org/2000/svg">
  <path d="M 14.797 7.5 C 14.797 11.53 11.53 14.797 7.5 14.797 C 3.47 14.797 0.203 11.53 0.203 7.5 C 0.203 3.47 3.47 0.203 7.5 0.203 C 11.53 0.203 14.797 3.47 14.797 7.5 Z M 8.787 8 L 8.787 7.991 L 9.001 3.396 C 8.989 3.17 8.799 2.994 8.572 3 L 6.43 3 C 6.203 2.993 6.012 3.169 6.002 3.396 L 6.216 8 C 6.224 8.228 6.416 8.407 6.644 8.4 L 8.359 8.4 C 8.587 8.407 8.778 8.228 8.787 8 Z M 9.001 10.5 C 9.001 10.236 8.932 9.978 8.8 9.75 C 8.223 8.75 6.78 8.75 6.203 9.75 C 5.625 10.75 6.347 12 7.502 12 C 8.33 12 9.001 11.328 9.001 10.5 Z" style="fill: rgb(193, 54, 51);"/>
</svg>