<?xml version="1.0" encoding="utf-8"?>
<svg width="5" height="15" viewBox="0 0 15 15" xmlns="http://www.w3.org/2000/svg">
  <path d="M 14.797 7.5 C 14.797 11.53 11.53 14.797 7.5 14.797 C 3.47 14.797 0.203 11.53 0.203 7.5 C 0.203 3.47 3.47 0.203 7.5 0.203 C 11.53 0.203 14.797 3.47 14.797 7.5 Z M 10.054 10.958 L 10.956 10.057 C 11.014 9.84 11.014 9.611 10.956 9.394 L 9.062 7.501 L 10.957 5.609 C 11.015 5.391 11.015 5.163 10.957 4.945 L 10.056 4.044 C 9.839 3.986 9.61 3.986 9.393 4.044 L 7.499 5.937 L 5.607 4.044 C 5.39 3.986 5.161 3.986 4.944 4.044 L 4.044 4.945 C 3.986 5.162 3.986 5.39 4.044 5.608 L 5.937 7.5 L 4.044 9.393 C 3.986 9.61 3.986 9.839 4.044 10.056 L 4.944 10.957 C 5.161 11.015 5.389 11.015 5.606 10.957 L 7.499 9.063 L 9.392 10.956 C 9.501 10.985 9.612 10.999 9.724 10.999 C 9.836 11 9.946 10.986 10.054 10.958 Z" style="fill: rgb(193, 54, 51);"/>
</svg>