<svg xmlns="http://www.w3.org/2000/svg" width="13.721" height="13.722" viewBox="0 0 13.721 13.722">
  <path id="Subtraction_7" data-name="Subtraction 7" d="M11.509,14.009a2.511,2.511,0,0,1-.65-.086L7.148,10.212,3.437,13.924a2.513,2.513,0,0,1-1.3,0L.374,12.159a2.514,2.514,0,0,1,0-1.3L4.084,7.148.374,3.438a2.514,2.514,0,0,1,0-1.3L2.138.373a2.513,2.513,0,0,1,1.3,0L7.148,4.084,10.86.373a2.513,2.513,0,0,1,1.3,0l1.766,1.767a2.512,2.512,0,0,1,0,1.3L10.212,7.149l3.712,3.712a2.512,2.512,0,0,1,0,1.3l-1.767,1.767A2.509,2.509,0,0,1,11.509,14.009Zm-.35-6.384-.476-.476.429-.43-.427.43.476.475Z" transform="translate(-0.288 -0.287)" fill="#fff"/>
</svg>
