<svg width="24" height="24" viewBox="0 0 24 24" fill="none" xmlns="http://www.w3.org/2000/svg">
<rect x="3" y="13.125" width="2.25" height="6" stroke="#0C0D0D"/>
<path d="M15.75 15.8514L19.5614 13.6509C20.0995 13.3402 20.7876 13.5246 21.0982 14.0627C21.4089 14.6008 21.2245 15.2888 20.6864 15.5995C20.6848 15.6004 20.6832 15.6013 20.6817 15.6022C20.6817 15.6022 20.6817 15.6022 14.25 19.3125C12.75 20.0625 12.375 19.875 10.5 19.3125C8.0625 18.5625 8.0625 18.5625 8.0625 18.5625C6.75 18.1875 5.25 18.1875 5.25 18.1875V13.875C5.25 13.875 6.5625 13.875 8.0625 14.25C9.5625 14.625 10.875 14.625 10.875 14.625H11.0625H14.625C15.2463 14.625 15.75 15.1287 15.75 15.75C15.75 16.3713 15.2463 16.875 14.625 16.875H11.0625" stroke="black"/>
<circle cx="12" cy="6.75" r="1.375" stroke="#0C0D0D"/>
<path fill-rule="evenodd" clip-rule="evenodd" d="M11.1613 7.9938C9.91263 8.35666 9 9.50925 9 10.875V13.125C9 13.125 12 14.25 15 13.125V10.875C15 9.50925 14.0874 8.35666 12.8387 7.9938C12.5993 8.15555 12.3107 8.25 12 8.25C11.6893 8.25 11.4007 8.15555 11.1613 7.9938ZM14 10.875V12.3935C12.9178 12.6744 11.8552 12.6616 10.999 12.5546C10.6088 12.5058 10.269 12.4384 10 12.3743V10.875C10 9.77043 10.8954 8.875 12 8.875C13.1046 8.875 14 9.77043 14 10.875Z" fill="#0C0D0D"/>
<path fill-rule="evenodd" clip-rule="evenodd" d="M9.79661 8.83904C9.5633 8.62776 9.28273 8.46376 8.97165 8.36307C8.77632 8.52656 8.52465 8.62499 8.25 8.62499C7.97535 8.62499 7.72368 8.52656 7.52835 8.36307C6.63968 8.65072 6 9.45499 6 10.4022V12.0163C6 12.0163 7.34766 12.4997 9 12.3441V11.3389C8.46898 11.3977 7.96204 11.3783 7.52497 11.326C7.3312 11.3028 7.15462 11.2736 7 11.2433V10.4022C7 10.0435 7.18336 9.70292 7.49207 9.48554C7.72774 9.57557 7.98344 9.62499 8.25 9.62499C8.51656 9.62499 8.77226 9.57557 9.00793 9.48554C9.0957 9.54735 9.17334 9.61911 9.23951 9.69842C9.37545 9.37988 9.56492 9.08965 9.79661 8.83904Z" fill="#0C0D0D"/>
<circle cx="8.25" cy="7.5" r="1" stroke="#0C0D0D"/>
<path fill-rule="evenodd" clip-rule="evenodd" d="M14.9087 10.1375C14.9748 9.88047 15.1358 9.64842 15.3671 9.48554C15.6027 9.57557 15.8584 9.62499 16.125 9.62499C16.3915 9.62499 16.6473 9.57557 16.8829 9.48554C17.1916 9.70292 17.375 10.0435 17.375 10.4022V11.2602C16.6654 11.4067 15.9727 11.3945 15.4 11.326C15.2566 11.3089 15.1226 11.2884 15 11.2667V12.2803C15.8646 12.4144 17.1198 12.4665 18.375 12.0163V10.4022C18.375 9.45499 17.7353 8.65072 16.8466 8.36307C16.6513 8.52656 16.3996 8.62499 16.125 8.62499C15.8503 8.62499 15.5987 8.52656 15.4033 8.36307C14.9971 8.49457 14.6429 8.73404 14.378 9.04578C14.6239 9.36495 14.8069 9.73501 14.9087 10.1375Z" fill="#0C0D0D"/>
<circle cx="16.125" cy="7.5" r="1" stroke="#0C0D0D"/>
</svg>
