<svg id="file-pdf" xmlns="http://www.w3.org/2000/svg" width="12" height="16" viewBox="0 0 12 16">
  <path id="Path_1227" data-name="Path 1227" d="M9.792,10.579c-.436-.429-1.68-.311-2.3-.232A3.1,3.1,0,0,1,6.176,8.694a4.488,4.488,0,0,0,.193-2,.8.8,0,0,0-1.522-.211,5.14,5.14,0,0,0,.25,2.4,28.67,28.67,0,0,1-1.265,2.657c-.715.368-1.68.936-1.822,1.65-.118.564.929,1.971,2.719-1.114a17.74,17.74,0,0,1,2.444-.718,4.756,4.756,0,0,0,1.994.607A.825.825,0,0,0,9.792,10.579ZM2.713,13.358A4.285,4.285,0,0,1,3.8,12.108C3.12,13.19,2.713,13.383,2.713,13.358ZM5.629,6.551c.264,0,.239,1.146.064,1.457A2.993,2.993,0,0,1,5.629,6.551Zm-.872,4.878A14.012,14.012,0,0,0,5.64,9.476a3.935,3.935,0,0,0,1.076,1.268A12.094,12.094,0,0,0,4.757,11.429Zm4.7-.179s-.179.214-1.333-.279C9.381,10.879,9.588,11.165,9.46,11.251Z"/>
  <path id="Path_1228" data-name="Path 1228" d="M8,4.5h3V3.828a1,1,0,0,0-.293-.707L8.879,1.293A1,1,0,0,0,8.172,1H7.5V4A.5.5,0,0,0,8,4.5ZM8.172,0A2,2,0,0,1,9.586.586l1.828,1.828A2,2,0,0,1,12,3.828V14a2,2,0,0,1-2,2H2a2,2,0,0,1-2-2V2A2,2,0,0,1,2,0ZM11,5.5V14a1,1,0,0,1-1,1H2a1,1,0,0,1-1-1V2A1,1,0,0,1,2,1H6.5V4A1.5,1.5,0,0,0,8,5.5Z" fill="#0c0d0d" fill-rule="evenodd"/>
  <path id="Path_1229" data-name="Path 1229" d="M9.792,10.579c-.436-.429-1.68-.311-2.3-.232A3.1,3.1,0,0,1,6.176,8.694a4.488,4.488,0,0,0,.193-2,.8.8,0,0,0-1.522-.211,5.14,5.14,0,0,0,.25,2.4,28.67,28.67,0,0,1-1.265,2.657c-.715.368-1.68.936-1.822,1.65-.118.564.929,1.971,2.719-1.114a17.74,17.74,0,0,1,2.444-.718,4.756,4.756,0,0,0,1.994.607A.825.825,0,0,0,9.792,10.579ZM2.713,13.358A4.285,4.285,0,0,1,3.8,12.108C3.12,13.19,2.713,13.383,2.713,13.358ZM5.629,6.551c.264,0,.239,1.146.064,1.457A2.993,2.993,0,0,1,5.629,6.551Zm-.872,4.878A14.012,14.012,0,0,0,5.64,9.476a3.935,3.935,0,0,0,1.076,1.268A12.094,12.094,0,0,0,4.757,11.429Zm4.7-.179s-.179.214-1.333-.279C9.381,10.879,9.588,11.165,9.46,11.251Z" fill="#373c49"/>
  <path id="Path_1230" data-name="Path 1230" d="M8,4.5h3V3.828a1,1,0,0,0-.293-.707L8.879,1.293A1,1,0,0,0,8.172,1H7.5V4A.5.5,0,0,0,8,4.5ZM8.172,0A2,2,0,0,1,9.586.586l1.828,1.828A2,2,0,0,1,12,3.828V14a2,2,0,0,1-2,2H2a2,2,0,0,1-2-2V2A2,2,0,0,1,2,0ZM11,5.5V14a1,1,0,0,1-1,1H2a1,1,0,0,1-1-1V2A1,1,0,0,1,2,1H6.5V4A1.5,1.5,0,0,0,8,5.5Z" fill="#373c49" fill-rule="evenodd"/>
</svg>
