<svg xmlns="http://www.w3.org/2000/svg" width="12" height="16" viewBox="0 0 12 16">
  <g id="file-excel" transform="translate(-854 -1252)">
    <path id="file" d="M8,4.5h3V3.828a1,1,0,0,0-.293-.707L8.879,1.293A1,1,0,0,0,8.172,1H7.5V4A.5.5,0,0,0,8,4.5ZM8.172,0A2,2,0,0,1,9.586.586l1.828,1.828A2,2,0,0,1,12,3.828V14a2,2,0,0,1-2,2H2a2,2,0,0,1-2-2V2A2,2,0,0,1,2,0ZM11,5.5V14a1,1,0,0,1-1,1H2a1,1,0,0,1-1-1V2A1,1,0,0,1,2,1H6.5V4A1.5,1.5,0,0,0,8,5.5Z" transform="translate(854 1252)" fill="#373c49" fill-rule="evenodd"/>
    <path id="Path_1237" data-name="Path 1237" d="M3.818,13l1.448-2.68L3.906,7.784H5.218l.456.984q.088.184.176.392t.2.448h.032q.088-.248.168-.448t.168-.392l.416-.984H8.09L6.738,10.376,8.178,13H6.866l-.52-1.064q-.1-.208-.192-.408t-.2-.448H5.922q-.088.24-.176.448t-.176.408L5.082,13Z" transform="translate(854.182 1251.5)" fill="#373c49"/>
  </g>
</svg>
