<svg xmlns="http://www.w3.org/2000/svg" width="12" height="16" viewBox="0 0 12 16">
  <g id="file-powerpoint" transform="translate(-869 -1252)">
    <path id="file" d="M8,4.5h3V3.828a1,1,0,0,0-.293-.707L8.879,1.293A1,1,0,0,0,8.172,1H7.5V4A.5.5,0,0,0,8,4.5ZM8.172,0A2,2,0,0,1,9.586.586l1.828,1.828A2,2,0,0,1,12,3.828V14a2,2,0,0,1-2,2H2a2,2,0,0,1-2-2V2A2,2,0,0,1,2,0ZM11,5.5V14a1,1,0,0,1-1,1H2a1,1,0,0,1-1-1V2A1,1,0,0,1,2,1H6.5V4A1.5,1.5,0,0,0,8,5.5Z" transform="translate(869 1252)" fill="#373c49" fill-rule="evenodd"/>
    <path id="Path_1236" data-name="Path 1236" d="M4.233,13V7.784H6.025a3.54,3.54,0,0,1,.808.088,1.735,1.735,0,0,1,.656.28,1.315,1.315,0,0,1,.44.52,1.69,1.69,0,0,1,.168.792,1.751,1.751,0,0,1-.168.792,1.5,1.5,0,0,1-.44.552,1.89,1.89,0,0,1-.648.32,2.872,2.872,0,0,1-.784.1H5.409V13Zm1.176-2.7h.576q.96,0,.96-.832a.636.636,0,0,0-.256-.576,1.342,1.342,0,0,0-.736-.168H5.409Z" transform="translate(868.766 1251.5)" fill="#373c49"/>
  </g>
</svg>
