<svg xmlns="http://www.w3.org/2000/svg" width="16.831" height="20.234" viewBox="0 0 16.831 20.234">
  <g id="Group_6" data-name="Group 6" transform="translate(0 0)">
    <path id="Path_320" data-name="Path 320" d="M899.2,1370.678a5.273,5.273,0,0,1-.428,1.817,2.017,2.017,0,0,1-.914.914,2.362,2.362,0,0,1-.683.22c-.24.038-.675.082-1.307.128q-1.019.046-4.189.069t-4.57-.023q-1.4-.047-2.141-.139a4.228,4.228,0,0,1-1.169-.312,1.784,1.784,0,0,1-.683-.591,3.574,3.574,0,0,1-.289-.683,5.909,5.909,0,0,1-.22-.845,26.492,26.492,0,0,1-.15-3.726,17.759,17.759,0,0,1,.266-3.332,2.525,2.525,0,0,1,.729-1.365,2.388,2.388,0,0,1,1.412-.544q.89-.081,2.951-.127t4.281-.023a38.814,38.814,0,0,1,5.323.243,1.946,1.946,0,0,1,1.2.832,4.339,4.339,0,0,1,.555,1.863q.069.579.093,2.407A27.868,27.868,0,0,1,899.2,1370.678Zm-11.8-5.554v-1.065h-3.541v1.065h1.18v6.479h1.134v-6.479H887.4Zm-1.782-11.5.555-.023a1.656,1.656,0,0,1,.59.046q.035.047.4,1.435t.393,1.388q.023,0,.324-1.157l.486-1.713h.579c.246,0,.408,0,.486.012s.108.027.093.058l-1.388,4.42v3.1H887v-3.124Zm4.605,12.357h-1.065v4.281l-.255.254a.823.823,0,0,1-.312.231.207.207,0,0,1-.2-.069.922.922,0,0,1-.081-.474q-.012-.4-.012-1.932v-2.291h-1.065v2.43q0,1.458.023,1.966a3.177,3.177,0,0,0,.069.833.66.66,0,0,0,.22.324.785.785,0,0,0,.451.128.925.925,0,0,0,.474-.082,2.251,2.251,0,0,0,.428-.324l.255-.231v.579h1.064v-5.623Zm-.752-5.6a2.033,2.033,0,0,1-.1-.648q-.023-.347-.023-1.354t.023-1.377a2.178,2.178,0,0,1,.1-.66,1.8,1.8,0,0,1,.266-.428,1.253,1.253,0,0,1,.683-.4,1.7,1.7,0,0,1,.856.012,1.326,1.326,0,0,1,.683.417,1.545,1.545,0,0,1,.255.428,2.607,2.607,0,0,1,.093.66q.023.371.023,1.342,0,1.088-.023,1.423a3.851,3.851,0,0,1-.069.544,1.6,1.6,0,0,1-.382.532,1.521,1.521,0,0,1-1.053.429,2.187,2.187,0,0,1-.486-.1,1.188,1.188,0,0,1-.555-.394A1.7,1.7,0,0,1,889.469,1360.38Zm.914-2.013q0,1,.023,1.342a1.129,1.129,0,0,0,.1.509.357.357,0,0,0,.312.116.69.69,0,0,0,.22-.035.248.248,0,0,0,.15-.173,2.471,2.471,0,0,0,.069-.532q.023-.346.023-1.2a10.047,10.047,0,0,0-.069-1.736.431.431,0,0,0-.764,0A9.575,9.575,0,0,0,890.383,1358.367Zm3.68,8.7a2.1,2.1,0,0,0-.208-.786.836.836,0,0,0-.3-.289.752.752,0,0,0-.382-.128,1.012,1.012,0,0,0-.4.1,1.374,1.374,0,0,0-.417.289l-.278.231v-2.43h-1.018v7.544h1.018v-.509l.231.208a1.616,1.616,0,0,0,.417.289,1.069,1.069,0,0,0,.474.069,1,1,0,0,0,.451-.1.837.837,0,0,0,.3-.37,1.513,1.513,0,0,0,.116-.486q.023-.278.023-1.643C894.1,1368.057,894.093,1367.392,894.062,1367.068Zm-1.122-.011a2.2,2.2,0,0,1,.081.566v1.3l-.023,1.573-.162.139a.4.4,0,0,1-.243.116.74.74,0,0,1-.312-.116l-.208-.116v-3.448l.255-.139c.108-.046.185-.077.231-.092a.277.277,0,0,1,.185.023A.312.312,0,0,1,892.94,1367.056Zm.243-6.757q-.023-.428-.023-2.233l-.023-2.569H894.2v2.36q0,1.527.023,1.955a1.235,1.235,0,0,0,.069.474q.208.162.555-.208l.208-.208V1355.5h1.065v5.693h-1.065v-.579l-.278.232a1.437,1.437,0,0,1-.428.324,1.146,1.146,0,0,1-.428.069.783.783,0,0,1-.393-.081.735.735,0,0,1-.255-.289A1.7,1.7,0,0,1,893.183,1360.3Zm4.721,9.338h-1.111v.347a1.647,1.647,0,0,1-.046.451.478.478,0,0,1-.2.254.347.347,0,0,1-.324.046.539.539,0,0,1-.289-.243,1.2,1.2,0,0,1-.069-.3,5.131,5.131,0,0,1-.023-.578v-.648h2.036v-.833a4.745,4.745,0,0,0-.093-1.122,1.556,1.556,0,0,0-.336-.614,1.481,1.481,0,0,0-.509-.393,1.37,1.37,0,0,0-.636-.093,1.672,1.672,0,0,0-.555.082,1.387,1.387,0,0,0-.463.289,1.265,1.265,0,0,0-.336.463,2.8,2.8,0,0,0-.15.763q-.023.463-.023,1.458.023.925.046,1.261a1.358,1.358,0,0,0,.093.474,1.432,1.432,0,0,0,.717.81,1.358,1.358,0,0,0,.694.161,1.806,1.806,0,0,0,.694-.116,1.29,1.29,0,0,0,.613-.52,1.973,1.973,0,0,0,.22-.914Zm-2.06-1.527v-.417a1.2,1.2,0,0,1,.15-.717.461.461,0,0,1,.486-.115c.223.046.336.324.336.833v.417Z" transform="translate(-882.451 -1353.599)" fill="#fff"/>
  </g>
</svg>
