<svg id="file-word" xmlns="http://www.w3.org/2000/svg" width="12" height="16" viewBox="0 0 12 16">
  <path id="Path_1233" data-name="Path 1233" d="M8,4.5h3V3.828a1,1,0,0,0-.293-.707L8.879,1.293A1,1,0,0,0,8.172,1H7.5V4A.5.5,0,0,0,8,4.5ZM8.172,0A2,2,0,0,1,9.586.586l1.828,1.828A2,2,0,0,1,12,3.828V14a2,2,0,0,1-2,2H2a2,2,0,0,1-2-2V2A2,2,0,0,1,2,0ZM11,5.5V14a1,1,0,0,1-1,1H2a1,1,0,0,1-1-1V2A1,1,0,0,1,2,1H6.5V4A1.5,1.5,0,0,0,8,5.5Z" fill="#373c49" fill-rule="evenodd"/>
  <path id="Path_1234" data-name="Path 1234" d="M3.826,13,2.858,7.784H4.066l.36,2.44q.048.408.1.824t.1.824h.032q.08-.416.152-.824t.16-.824l.56-2.44h1l.56,2.44q.08.4.152.816t.16.832h.032q.056-.424.1-.832l.112-.816.36-2.44H9.146L8.218,13H6.738l-.512-2.368q-.064-.3-.12-.608t-.088-.6H5.986q-.048.288-.1.6t-.112.608L5.282,13Z" fill="#373c49"/>
</svg>
