<svg xmlns="http://www.w3.org/2000/svg" width="5" height="15" viewBox="0 0 5 15">
  <g id="Group_822" data-name="Group 822" transform="translate(0.334 -0.333)">
    <path id="Subtraction_6" data-name="Subtraction 6" d="M2.5,5A2.5,2.5,0,1,1,5,2.5,2.5,2.5,0,0,1,2.5,5Z" transform="translate(-0.334 10.333)" fill="#fff"/>
    <path id="Subtraction_5" data-name="Subtraction 5" d="M3.929,9H1.071a.693.693,0,0,1-.714-.667L0,.66A.694.694,0,0,1,.714,0H4.285A.7.7,0,0,1,5,.66L4.643,8.319v.015A.693.693,0,0,1,3.929,9Z" transform="translate(-0.334 0.333)" fill="#fff"/>
  </g>
</svg>
