<svg xmlns="http://www.w3.org/2000/svg" width="18.143" height="13.428" viewBox="0 0 18.143 13.428">
  <path id="Union_10" data-name="Union 10" d="M6.8,13.509h0a2.042,2.042,0,0,1-.377-.035.722.722,0,0,1-.095-.079L.194,7.267a.662.662,0,0,1-.078-.095,2,2,0,0,1,0-.753.669.669,0,0,1,.078-.1L1.608,4.91a.659.659,0,0,1,.1-.078A1.968,1.968,0,0,1,2.081,4.8a2.015,2.015,0,0,1,.375.035.628.628,0,0,1,.1.079L6.795,9.153,15.752.2a.614.614,0,0,1,.1-.078,1.959,1.959,0,0,1,.376-.036A2.025,2.025,0,0,1,16.6.116a.675.675,0,0,1,.1.079l1.414,1.414a.73.73,0,0,1,.079.1,2.015,2.015,0,0,1,0,.752.668.668,0,0,1-.079.095L7.267,13.395a.619.619,0,0,1-.1.079,2.023,2.023,0,0,1-.375.035Z" transform="translate(-0.08 -0.081)" fill="#fff"/>
</svg>
